<svg width="37" height="28" viewBox="0 0 37 28" fill="none" xmlns="http://www.w3.org/2000/svg">
<path d="M5.94268 9.602C7.1847 8.07186 9.44462 7.86841 10.94 9.15212L16.9741 14.3323L10.9029 19.4221C9.41712 20.6677 7.20194 20.4682 5.96266 18.9772L2.10248 14.333L5.94268 9.602Z" stroke="#CFCEC8"/>
<path d="M30.5241 9.602C29.2821 8.07186 27.0222 7.86841 25.5268 9.15212L19.4927 14.3323L25.5639 19.4221C27.0497 20.6677 29.2649 20.4682 30.5041 18.9772L34.3643 14.333L30.5241 9.602Z" stroke="#CFCEC8"/>
<path d="M16.8827 1.76874C17.4685 1.18296 18.4182 1.18296 19.004 1.76874L21.3643 4.12903C21.8872 4.6519 21.951 5.47781 21.5147 6.0748L17.9409 10.9645L14.3488 6.11054C13.9069 5.51343 13.9686 4.68285 14.4938 4.15759L16.8827 1.76874Z" stroke="#CFCEC8"/>
<path d="M17.0819 26.2317C17.6677 26.8175 18.6175 26.8175 19.2032 26.2317L21.5635 23.8715C22.0864 23.3486 22.1502 22.5227 21.7139 21.9257L18.1401 17.036L14.548 21.8899C14.1061 22.4871 14.1678 23.3176 14.6931 23.8429L17.0819 26.2317Z" stroke="#CFCEC8"/>
</svg>
